<svg width="21" height="20" viewBox="0 0 21 20" fill="none" xmlns="http://www.w3.org/2000/svg">
<path fill-rule="evenodd" clip-rule="evenodd" d="M12.6079 1.56023C11.5164 0.233829 9.48542 0.23383 8.39385 1.56023C7.81639 2.26191 6.92752 2.6301 6.02303 2.54225C4.31327 2.37621 2.87718 3.81229 3.04323 5.52206C3.13107 6.42655 2.76289 7.31541 2.06121 7.89287C0.734806 8.98444 0.734806 11.0154 2.06121 12.1069C2.76289 12.6844 3.13107 13.5733 3.04323 14.4778C2.87718 16.1875 4.31327 17.6236 6.02303 17.4576C6.92752 17.3697 7.81639 17.7379 8.39385 18.4396C9.48542 19.766 11.5164 19.766 12.6079 18.4396C13.1854 17.7379 14.0743 17.3697 14.9787 17.4576C16.6885 17.6236 18.1246 16.1875 17.9585 14.4778C17.8707 13.5733 18.2389 12.6844 18.9406 12.1069C20.267 11.0154 20.267 8.98444 18.9406 7.89287C18.2389 7.31541 17.8707 6.42655 17.9585 5.52206C18.1246 3.81229 16.6885 2.37621 14.9787 2.54225C14.0743 2.6301 13.1854 2.26191 12.6079 1.56023ZM14.3763 8.82065C14.8296 8.33715 14.8051 7.57775 14.3216 7.12447C13.8381 6.6712 13.0787 6.6957 12.6254 7.17919L9.75087 10.2454L8.37631 8.77919C7.92303 8.2957 7.16363 8.2712 6.68014 8.72447C6.19664 9.17775 6.17214 9.93715 6.62542 10.4206L8.87542 12.8206C9.10228 13.0626 9.41918 13.1999 9.75087 13.1999C10.0826 13.1999 10.3995 13.0626 10.6263 12.8206L14.3763 8.82065Z" fill="#9E32DD"/>
</svg>
