<svg width="21" height="20" viewBox="0 0 21 20" fill="none" xmlns="http://www.w3.org/2000/svg">
<path d="M18.2979 13.3558C17.7603 14.8128 16.9473 16.0796 15.8812 17.1207C14.6677 18.3056 13.0786 19.2472 11.1582 19.919C11.0945 19.9411 11.0294 19.9589 10.9633 19.9722C10.876 19.9894 10.7872 19.9988 10.6992 20H10.6819C10.5881 20 10.4938 19.9905 10.4003 19.9722C10.3342 19.959 10.2693 19.9409 10.2066 19.9194C8.28386 19.2488 6.69284 18.3076 5.47812 17.1226C4.41148 16.0815 3.59867 14.8155 3.06187 13.3586C2.08574 10.7097 2.14128 7.79159 2.18601 5.44663L2.18679 5.41061C2.19577 5.21698 2.20156 5.01358 2.20476 4.78897C2.22109 3.68623 3.09784 2.77389 4.20077 2.71241C6.50027 2.58405 8.27913 1.83409 9.79906 0.352642L9.81234 0.340415C10.0647 0.108931 10.3827 -0.00458486 10.6992 0.000141705C11.0044 0.00408702 11.3083 0.117485 11.5517 0.340376L11.5646 0.352603C13.0849 1.83409 14.8638 2.58405 17.1633 2.71237C18.2662 2.77389 19.143 3.6862 19.1593 4.78893C19.1625 5.0151 19.1682 5.21819 19.1773 5.41061L19.1777 5.42584C19.2223 7.77526 19.2775 10.6991 18.2979 13.3558Z" fill="#9E32DD"/>
<path d="M18.298 13.3557C17.7604 14.8126 16.9474 16.0794 15.8813 17.1205C14.6677 18.3055 13.0787 19.2471 11.1582 19.9188C11.0945 19.941 11.0294 19.9588 10.9634 19.9721C10.8761 19.9893 10.7873 19.9986 10.6992 19.9998V0C11.0044 0.00394531 11.3084 0.117344 11.5517 0.340234L11.5647 0.352461C13.0849 1.83395 14.8638 2.58391 17.1633 2.71223C18.2662 2.77375 19.143 3.68605 19.1593 4.78879C19.1625 5.01496 19.1683 5.21805 19.1773 5.41047L19.1778 5.4257C19.2223 7.77512 19.2776 10.699 18.298 13.3557Z" fill="#9E32DD"/>
<path d="M15.6663 10.0001C15.6663 12.7425 13.4396 14.9749 10.6994 14.9846H10.6818C7.93359 14.9846 5.69727 12.7485 5.69727 10.0001C5.69727 7.25184 7.93359 5.01562 10.6818 5.01562H10.6994C13.4396 5.02539 15.6663 7.25777 15.6663 10.0001Z" fill="#F4F4F4"/>
<path d="M15.6661 10.0001C15.6661 12.7425 13.4394 14.9749 10.6992 14.9846V5.01562C13.4394 5.02539 15.6661 7.25777 15.6661 10.0001Z" fill="#E1EBF0"/>
<path d="M12.9449 9.28303L10.7 11.5282L10.215 12.0133C10.1605 12.0679 10.0958 12.1111 10.0246 12.1406C9.95337 12.1701 9.87702 12.1852 9.79993 12.1851C9.72282 12.1852 9.64645 12.1701 9.5752 12.1406C9.50395 12.1111 9.43922 12.0679 9.38474 12.0133L8.34181 10.9699C8.11263 10.7407 8.11263 10.3694 8.34181 10.1401C8.57071 9.91092 8.94239 9.91092 9.17157 10.1401L9.79993 10.7685L12.1152 8.45322C12.3443 8.22393 12.7161 8.22393 12.9449 8.45322C13.1741 8.68244 13.1741 9.05416 12.9449 9.28303Z" fill="#252525"/>
<path d="M12.9441 9.28302L10.6992 11.5282V9.86817L12.1143 8.45325C12.3435 8.22392 12.7152 8.22392 12.9441 8.45325C13.1733 8.68243 13.1733 9.05415 12.9441 9.28302Z" fill="#1A1A1A"/>
</svg>
